<svg xmlns="http://www.w3.org/2000/svg" xml:space="preserve" viewBox="0 0 241.11 243.04"><ellipse cx="120.34" cy="121.62" rx="117.36" ry="118.47" style="fill:none;stroke:#000;stroke-width:2;stroke-miterlimit:10"/><path d="M172.76 172.68c-3.21-2.89-6.54-5.63-9.56-8.66-8.04-8.07-13.74-17.65-17.45-28.38-2.3-6.64-3.86-13.46-4.17-20.52-.07-1.53-.18-3.06-.32-4.59-.13-1.37.38-1.87 1.81-1.86 8.82.05 17.63.02 26.45.03 11 0 22.01 0 33.01.01 2.33 0 2.33.01 2.33 2.36-.01 11.53-2.86 22.39-7.82 32.72-5.15 10.72-12.6 19.62-21.74 27.16-.64.51-1.36.92-2.54 1.73m-29.82-62.6c-2.6 11.05 9.52 43.86 18.07 49.18.07-.23.19-.44.19-.66.07-4.96.15-9.92.18-14.88.03-4.72.01-9.44 0-14.16-.01-5.79-.03-11.58-.02-17.36 0-1.53-.53-2.21-2.2-2.15-3.55.12-7.1.03-10.65.03zm42.04 49.24c9.61-7.52 21.35-39.29 18.25-49.05h-18.25zm-1.54-28.75c-2.12-.27-3.97-.19-5.58-.79-3.28-1.22-6.42-1.23-9.66.01-1.4.54-2.85 1.17-4.44.41-.27-.13-.74.2-1.23.34 1.3 1.59 2.61 2.03 4.76 1.19 3.88-1.51 7.62-1.66 11.51.01 1.06.46 2.53.1 3.78-.09.37-.04.64-.78.86-1.08m.15 6.05c-2.44-.37-4.43-.43-6.24-1.01-2.94-.95-5.71-.97-8.64.01-1.48.49-3.17.33-4.76.51-.44.05-.87.23-1.31.36l-.06.71c.94.27 1.88.76 2.82.75 1.15-.01 2.36-.28 3.44-.69 2.84-1.07 5.56-1.05 8.44.03 1.52.57 3.32.47 4.99.46.45-.01.89-.75 1.32-1.13m.03-17.8c-.08-.16-.17-.32-.25-.48l-1.01-.09c-1.61-.14-3.34.06-4.8-.49-3-1.11-5.87-1.15-8.81-.04-1.56.59-3.1 1.1-4.8.54-.37-.12-.84.09-1.27.15-.06.21-.13.43-.19.64.83.34 1.66.97 2.49.97 1.32 0 2.72-.23 3.95-.71 2.8-1.09 5.46-1.02 8.26.01 1.39.51 2.98.64 4.48.64.65.01 1.3-.73 1.95-1.14m-21.37-6.12c.61.47.94.95 1.29.96 1.55.05 3.21.31 4.63-.15 3.08-1 5.97-1.41 9.12-.17 1.51.59 3.33.5 5.01.51.45 0 .91-.75 1.36-1.16l-.27-.63c-2.91 1.17-5.4-.3-8.06-.86-1.44-.31-3.02-.21-4.5-.01-2.52.33-4.84 2.02-7.55 1.05-.15-.05-.4.17-1.03.46m.25 29.18c.56 2.13 1.85 2.3 3.1 2.15 1.39-.17 2.79-.53 4.11-1.01 2.4-.87 4.68-.7 7.09.09 1.58.52 3.32.6 5 .7.96.06 1.66-.44 1.44-1.95-2.63 1.27-4.86.08-7.2-.69-1.14-.38-2.45-.38-3.67-.36-3.25.04-6.11 2.62-9.87 1.07m.03 12.49c.97 1.56 3.14 2.18 5.12 1.3 3.56-1.58 6.99-1.52 10.63-.16 1.35.5 3.07.06 4.62-.07.2-.02.34-.71.51-1.1-.37-.1-.83-.39-1.08-.26-1.63.81-3.12.19-4.6-.38-2.91-1.13-5.87-1.34-8.81-.24-1.79.67-3.5 1.44-5.45.63-.19-.08-.51.15-.94.28m.03-5.93c.72 1.48 1.89 1.69 3.07 1.56 1.16-.13 2.31-.46 3.42-.85 2.66-.94 5.24-1.01 7.94.02 1.39.53 2.98.67 4.49.76.98.05 2.06-.23 1.97-1.74-.3-.05-.63-.22-.85-.12-2.12.93-4.11.09-6-.62-2.29-.86-4.47-.81-6.76-.17-2.12.6-4.18 1.73-6.5.82-.15-.05-.4.17-.78.34m-.06 12.04c1.24 1.6 3.07 2.09 5.49 1 3.42-1.53 6.65-1.42 10.07-.02 1.22.5 2.77.36 4.15.25.76-.06 1.61-.57.84-1.89-2.31 1.39-4.42.11-6.56-.54-1.91-.58-3.8-.78-5.74-.27-2.52.67-4.96 1.91-7.7 1.11-.12-.02-.29.18-.55.36m.25-36-.21.57c.74.34 1.47.92 2.22.95 1.14.05 2.38-.09 3.44-.49 3.1-1.17 6.1-1.42 9.26-.1 1.24.52 2.75.56 4.13.55.75-.01 1.96-.13 1.81-1.2-2.35-.42-4.58-.55-6.61-1.24-2.6-.88-5.06-.86-7.6.02-1.82.63-3.64 1.37-5.64.71-.23-.07-.54.15-.8.23m15.39 42.49c-2.21-3.16-8.3-2.64-10.38.09.93 0 1.65.21 2.14-.04 2.18-1.08 4.29-.91 6.46-.01.41.19.97 0 1.78-.04"/><path d="M112.94 161.97c.41-1.12.95-2.4 1.36-3.73.14-.47.16-1.16-.09-1.54-1.84-2.94-1.95-5.96-.67-9.13.18-.44.11-1.14-.13-1.57-1.53-2.79-1.64-5.58-.34-8.5.23-.52.05-1.38-.23-1.95-1.34-2.72-1.57-5.48-.8-8.41.24-.92.11-2.07-.23-2.97-.97-2.57-.95-5.1.03-7.61.41-1.06.27-1.83-.14-2.92-.76-2.04-.94-4.3-1.43-6.81-.93-.49-1.64-1.36-.21-2.73.21-.2.25-.64.26-.97.06-4.51-2.16-7.98-5.13-11.09-.28-.29-.84-.38-1.28-.4-1.12-.06-2.26-.11-3.37 0-2.87.26-4.13-.76-3.43-4.07-3.9-.89-6.94-2.95-9.15-6.37-2.97-4.6-7.67-6.2-12.79-6.94-3.26-.47-6.59-.7-9.75-1.54-5.04-1.33-8.16-3.59-8.94-10.12 1.29.5 2.43 1.01 3.6 1.39 2.4.78 4.79 1.95 7.24 2.11 2.57.17 5.22-.53 7.8-1.07 3.28-.68 6.5-1.74 10.11-.74-1.05-1.47-2.26-2.65-2.83-4.09-.77-1.94-1.47-4.08-1.43-6.12.07-3.42-1.64-5.52-4.15-7.32l-.85-.63c1.65-1.07 3.37-1.1 4.78-.36 1.89 1 3.51 2.51 5.29 3.74 1.48 1.02 2.91 2.4 4.56 2.83 4.57 1.2 8 3.9 11.03 7.3.34.38.73.71 1.46 1.4.09-4.42 1.12-8.43-.43-12.29-2.07-5.14-.65-9.43 2.74-13.37.1-.11.29-.14.51-.25.29 2.03.34 4.06.93 5.92.53 1.67 1.48 3.31 2.6 4.66 1.03 1.24 2.49 2.17 3.86 3.09 2.37 1.57 4.18 3.6 5.53 6.08.27.49.6.95 1.17 1.85.74-5.17 4.62-6.83 8.09-8.91 1.21-.73 2.4-1.51 3.55-2.32 2.23-1.58 3.35-3.73 3.25-6.5-.04-1.12-.01-2.24-.01-3.77 3.09 2.07 5.59 4.15 6.38 7.67.86 3.8-.62 7.18-2.01 10.57-.35.86-.74 1.7-1.13 2.61.24 0 .38.04.43-.01 2.64-2.65 5.74-4.18 9.55-4.4 2.74-.16 4.97-1.7 6.95-3.54 2.9-2.68 6.2-2.83 9.9-1.53-.35.41-.58.84-.94 1.07-3.25 2.03-4.53 5.18-4.88 8.77-.3 3.04-1.53 5.53-3.82 7.52-.25.22-.43.51-.63.74 3.4-.28 6.73-.65 10.07-.8 1.69-.07 3.43.09 5.08.46 4.58 1.04 9.03.47 13.46-.75.6-.17 1.2-.31 1.81-.46.16.12.32.24.48.35-.7 1.42-1.23 2.96-2.13 4.24-2.96 4.22-7.37 6.08-12.21 7.11-3.5.75-7.04 1.3-10.51 2.16-1.32.33-2.67 1.08-3.7 1.99-3.65 3.22-7.99 5.2-12.29 7.28-.52.25-1.02.56-1.58.86.22.51.46.92.57 1.36.41 1.67-.54 2.94-2.25 3.06-.41.03-.85.09-1.24-.01-4.58-1.14-6.77 1.81-8.39 5.21-.89 1.86-1.11 4.05-1.57 6.1-.08.34.04.82.25 1.1 1.39 1.88 1.31 2.23-.57 2.96-.57 1.46-1.07 2.74-1.7 4.37 1.3 2.35 1.38 5.11-.03 7.91-.18.35-.13 1 .08 1.34 1.98 3.13 1.37 6.02-.77 8.95 1.43 3.09 1.55 6.26-.33 9.41 1.53 3.05 1.7 6.12 0 9.24-.24.44.12 1.34.42 1.91 1.21 2.34 1.27 4.72-.03 6.93-.78 1.33-1.03 2.37-.1 3.64.34.46.46 1.08.71 1.71 1.3.17 2.16.89 1.99 2.31-.17 1.4-1.09 2.05-2.5 2.31-.53.1-1.28.93-1.3 1.46-.26 4.9-.38 9.81-.55 14.72-.17 5.14-.34 10.28-.52 15.42-.05 1.35-.58 2.38-1.89 2.91 1.3 2.89 1.13 4.58-.59 5.85-1.35.99-2.95.97-4.23-.07-1.78-1.43-1.92-2.9-.54-5.72-1.83-.62-2.14-2.19-2.22-3.81-.22-4.43-.36-8.86-.55-13.29-.22-5.26-.48-10.51-.68-15.77-.04-1.17-.55-1.67-1.7-1.81-1.89-.24-2.77-1.45-2.13-3.21.25-.62 1.29-1 2.14-1.66M91.23 73.4c3.18 4.5 8.01 5.57 13.18 6.64-.88-2.01-1.46-4.01-2.56-5.68-1.18-1.8-1.18-3.56-.96-5.76 2.71 2.69 5.02 5.51 9.02 6.78-.3-3.21-.57-6.04-.85-9.01.42.05 1.13.05 1.78.24 2.33.68 3.82 2.22 4.55 4.53.8 2.52 2.6 4.25 4.88 6.04.26-3.26 2.54-4.89 4.46-6.77 1.25-1.22 1.44-2.76 1.47-4.37.01-.31.05-.62.1-1.16 4.09 3.83 3.14 8.16 1.84 12.59 3.31-3.63 6.58-7.1 11.42-8.57-1.73 2.98-3.59 5.83-1.89 9.33 4-.55 7.7-1.66 10.76-5.1.13 3.65-.8 6.19-3.47 7.95-2.01 1.33-3.29 3.21-4.36 5.68.9-.15 1.52-.11 2.01-.36 4.61-2.35 9.45-4.3 13.48-7.69 2.35-1.98 5.11-3.05 8.16-3.58 3.76-.66 7.58-1.27 11.19-2.46 4.01-1.33 7.16-3.98 8.88-8.33-.71.15-1.2.31-1.7.36-3.33.34-6.74 1.26-9.98.83-5.27-.7-10.48-1.16-15.67-.11-2.46.5-4.9 1.62-7.08 2.92-2.26 1.35-4.17 3.26-6.26 4.91-.17.14-.49.08-1.27.19.76-.87 1.14-1.45 1.66-1.86 3.15-2.48 6.3-4.95 9.51-7.35 2.3-1.71 4.07-3.68 4.5-6.67.56-3.89 1.37-7.69 4.79-10.26.05-.04 0-.22-.01-.33-2.65-.72-5-.23-7.03 1.67-2.58 2.41-5.61 3.96-9.16 4.17-2.8.16-4.96 1.47-6.81 3.36-2.23 2.28-4.34 4.67-6.51 7.01-.29.31-.66.53-1.29 1.02.1-.64.08-.84.16-.97 1.74-2.66 3.63-5.24 5.19-8 1.96-3.45 3.48-7.09 3.19-11.22-.18-2.63-2.54-5.97-4.83-6.6-.03.48-.11.94-.07 1.39.28 3.5-1.37 6.01-4.15 7.85-2.26 1.5-4.6 2.87-6.9 4.3-3.18 1.97-4.14 4.82-3.38 8.39.11.54.02 1.12.02 1.68-.8-.77-1.27-1.58-1.6-2.44-1.72-4.37-4.45-7.81-8.52-10.3-3.13-1.92-5.28-4.68-5.44-8.61-.03-.7-.34-1.39-.57-2.3-2.43 2.98-3.32 6.08-2.06 9.45 1.96 5.22 1.22 10.46.61 15.72-.26.22-.51.44-.77.66-.32-.64-.53-1.39-.98-1.91-3.13-3.56-6.37-6.99-11.29-8.03-2.49-.53-4.33-2.04-5.97-3.88-.35-.4-.71-.8-1.13-1.12-1.54-1.17-3.09-2.34-5.49-1.64 2.61 1.94 3.75 4.32 3.72 7.43-.02 1.71.5 3.49 1.11 5.12 1.27 3.4 4.36 5.14 7.07 7.19 1.01.76 2.08 1.43 3.13 2.13-.1.16-.19.33-.29.49-.59-.28-1.19-.53-1.76-.83-1.83-.94-3.58-2.06-5.48-2.8-3.06-1.2-6.17-.6-9.2.3-4 1.18-8 2.11-12.14.72-2.15-.72-4.27-1.5-6.46-2.27.47 4.38 3.38 6.57 7.16 7.53 3.51.9 7.16 1.3 10.77 1.8 4.76.66 8.98 2.36 12.18 6.09 1 1.16 1.77 2.53 2.84 3.62 2.45 2.51 5.41 3.83 9.5 3.44-.61-1.14-.88-2.18-1.54-2.77-.99-.87-2.23-1.5-3.44-2.09-3.89-1.87-4.86-3.68-3.97-8.32m9.63 13.24h38.81c1.27-2.81 2.92-5.15 5.56-6.79 1.43-.89 2-2.5 2.2-3.85-2.47.89-4.92 1.92-7.46 2.64-1.73.49-2.88 1.28-3.6 2.98-.75 1.77-2.09 3.06-4.17 3.42 1.01-1.84 2.28-3.44 3.48-5.1.39-.54.97-1.26.86-1.79-.49-2.49-.32-4.87.66-7.25-5.89 3.17-9.37 8.5-12.8 13.91-.1-.49-.04-.87.09-1.23 1.11-2.96 2.27-5.91 3.35-8.89.87-2.39.91-4.75-.26-6.67-1.55 1.78-3.03 3.54-4.57 5.25-1.71 1.91-2.37 4-1.5 6.51.48 1.39 1 2.85-.03 4.41-.58-1.04-.97-2.13-1.2-3.26-.29-1.43-.21-2.94-1.58-3.97-2.18-1.64-3.57-3.84-4.48-6.42-.67-1.91-2.42-2.99-3.8-2.91 0 1.93-.14 3.85.05 5.75.13 1.31-.03 2.79 1.43 3.76.85.56 1.48 1.53 2.03 2.43.77 1.26 1.36 2.63 2.03 3.95-.2.13-.39.26-.59.39-.91-.89-2.17-1.61-2.66-2.69-1.62-3.56-4.52-5.65-7.7-7.57-1.16-.7-2.11-1.75-3.16-2.64.65 2.51 1.45 4.88 2.61 7.06 1.13 2.13 2.63 4.07 3.97 6.1-.72-.2-1.35-.57-1.86-1.06-1.85-1.76-4.06-2.65-6.51-3.32-2.11-.57-4.09-1.67-6.07-2.66-.8-.4-1.45-1.12-2.24-1.74-.03 3.08.69 4.21 3.79 5.53 2.66 1.13 4.98 2.47 5.32 5.72m14.73 81.39c0 .7-.02 1.16 0 1.62.39 9.51.79 19.02 1.18 28.53.07 1.79.65 2.39 2.48 2.42.89.02 1.77.01 2.66-.01 2.04-.04 2.6-.55 2.66-2.63.3-9.33.58-18.67.86-28 .02-.63-.06-1.26-.1-1.93zm18.91-76.26h-28.51c3.75 3.53 5.21 7.58 5.28 12.13h17.9c.33-4.54 1.73-8.59 5.33-12.13m-7.78 36.95c2.24-2.16 2.67-5.56.74-7.73-4.06-4.59-8.24-9.07-12.5-13.47-.62-.64-1.94-.61-3-.91-.82 3.02-.66 5.47 1.13 7.57 1.6 1.88 3.31 3.67 5.01 5.47 2.86 3.04 5.74 6.05 8.62 9.07m-13.38-12.87c-2.07 3.16-1.71 7.58.71 10.06 2.69 2.75 5.42 5.45 8.15 8.15 1.4 1.38 2.83 2.73 4.28 4.13 1.95-3.2 1.76-6.38-.48-8.83-2.7-2.96-5.46-5.87-8.2-8.79-1.44-1.55-2.9-3.07-4.46-4.72m-.21 10.7c-1.21 4.33-.71 7.83 2.32 10.82 2.31 2.28 4.56 4.63 6.78 6.99 1.2 1.27 2.3 2.63 3.45 3.97 2.61-2.83 2.39-7.21-.09-9.71-3.66-3.68-7.34-7.34-11.03-11-.35-.35-.79-.6-1.43-1.07m7.38-35.84v.04c4.55 0 9.1.01 13.66 0 2.19-.01 4.37-.07 6.56-.08 1.13 0 2.3-.06 2.26-1.53-.03-1.33-1.1-1.49-2.19-1.43-.47.02-.95-.02-1.42-.02h-36.37c-1.3 0-2.62-.09-3.89.11-.51.08-1.32.88-1.27 1.27.06.56.72 1.13 1.24 1.54.27.21.8.09 1.21.09 6.73.01 13.47.01 20.21.01m5.17 67.32c2.51-2.18 2.6-6.31.44-8.52-2.52-2.58-5.06-5.14-7.57-7.73-1.38-1.42-2.72-2.88-4.08-4.33-.39.35-.54.45-.64.59-.14.19-.31.39-.35.61-.4 2.64-.78 5.3 1.23 7.55 1.58 1.76 3.18 3.49 4.79 5.22 2.03 2.2 4.09 4.38 6.18 6.61m-11.1-10.74c-1.32 3.18-1.61 5.96.14 8.38 1.68 2.33 3.8 4.33 5.75 6.46.15.16.41.31.62.31 1.97.02 3.93.01 5.9.01.12-.19.23-.39.35-.58-3.44-5.36-8.45-9.37-12.76-14.58m1.32-40.19 11.09 11.94c1.54-1.77 1.67-5.17.45-7.3-2.48-4.31-5.82-5.71-11.54-4.64m13.09 56.29c-5.49 0-10.86-.01-16.24.02-.4 0-1.1.29-1.14.52-.08.52 0 1.28.34 1.61.41.4 1.15.63 1.75.64 4.44.04 8.88.04 13.32-.01 1.89-.02 2.31-.64 1.97-2.78m-8.25 38.32c-1.61.01-2.85 1.23-2.79 2.74.06 1.47 1.29 2.67 2.75 2.68 1.61.01 2.82-1.18 2.83-2.75.01-1.64-1.09-2.68-2.79-2.67m-10.27-96.86c-.07.21-.13.42-.2.63.51.16 1.01.47 1.52.47 4.29.03 8.58.01 12.87 0h5.86v-1.07c-6.68-.15-13.36-.11-20.05-.03m9.07 57.52c-1.59-1.47-2.86-2.66-4.42-4.1-.45 1.31-.87 2.56-1.39 4.1zm4.86-55.48c1.19 1.32 2.07 2.3 2.95 3.27.19-.02.38-.03.57-.05.29-1.01.59-2.03.94-3.23-1.64.01-2.81.01-4.46.01"/><path d="M35.33 108.88h63.35c.29 12.55-2.57 24.16-7.95 35.18-5.56 11.4-13.62 20.74-23.8 28.46-10.06-7.26-17.73-16.34-23.31-27.27-6.58-12.93-9.16-29.41-8.29-36.37m17.42 48.27c.15-.06.3-.11.45-.17.08-1.63.15-3.26.23-4.94h1.97v5.88c-.6.09-1.06.15-1.74.25 2.54 3.41 5.33 6.35 8.98 9.21 0-1.73-.09-2.96.05-4.16.05-.43.63-.8.97-1.19.4.4 1.13.79 1.14 1.2.05 1.84-.1 3.69-.19 5.88.54.42 1.4 1.09 2.32 1.81.73-.59 1.43-1.04 2-1.61 3.85-3.83 7.68-7.68 11.47-11.57.43-.44.77-1.2.75-1.8-.06-2.01-.31-4.01-.51-6.24.96.07 1.85-.01 1.91.17.35 1.12.52 2.31.82 3.85 3.57-4.96 6.4-9.95 8.27-15.1-1.89-2.33-.88-4.59-1.04-6.8h1.94c.18.87.34 1.63.5 2.38 2.84-7.73 4.61-15.55 4.19-23.72-.29-.04-.58-.08-.87-.11-.07 1.23-.15 2.46-.21 3.7-.09 1.67-.33 1.84-2.36 1.27v-5.1H82.8c-.1.91-.18 1.65-.28 2.59-.72-.08-1.31-.15-1.85-.22-.13-.95-.24-1.68-.36-2.54H56.19c-2.6 0-2.6.01-2.98 2.46-1.8.59-1.8.59-2.41-2.25H40.52v5.15c-1.67.55-2.3.12-2.24-1.37.05-1.22.01-2.45.01-3.61-1.78-.37-2.27.06-2.09 1.64.77 6.71 1.5 13.44 3.53 19.92.78 2.5 1.78 4.94 2.68 7.41.13-.05.27-.1.4-.15.13-1.33.26-2.66.4-4.06l1.87.11v5.89c-.31.08-.53.13-.75.2-.25.08-.5.19-.94.36 2.58 5.6 5.58 10.73 9.36 15.38m3.88 40.18c1.1.75 2.31 1.39 3.25 2.31.41.4.4 1.41.3 2.1-.4 2.84-.91 5.67-1.47 9.06 1.84-.97 3.26-1.71 4.66-2.46.98-.53 1.95-1.1 2.92-1.65 2.14-1.21 4.13-.61 5.8 1.93l-1.83-.49c-2.22 3.14-4.49 6.36-6.8 9.65.35.52.66.97.97 1.43-2.16-.47-3.67-1.88-5.32-3.4 2.12.77 2.62-.84 3.41-1.97 1.14-1.63 2.27-3.28 3.4-4.92-.09-.13-.18-.26-.27-.38-3.3 1.81-6.59 3.62-9.89 5.43-.15-.09-.3-.17-.45-.26.56-3.76 1.11-7.53 1.67-11.29-.15-.06-.3-.11-.45-.17-1.57 2.24-3.2 4.44-4.64 6.76-.26.42.23 1.31.46 2.39-1.37-.97-2.6-1.84-3.84-2.71l-.09-.62c2.09 1.21 2.62-.33 3.39-1.4 1.41-1.96 2.82-3.93 4.19-5.93.65-.95 1.68-1.91-.09-3.21.23-.08.47-.14.72-.2M40.33 44.1c1.55-1.35 3.11-2.7 4.58-3.99-.08.3-.22.85-.33 1.24 2.49 2.57 4.84 5.13 7.36 7.52.52.49 1.65.33 2.77.51-1.43 1.54-2.86 3.08-4.6 4.95.2-2.47-1.02-4.67-2.84-5.5-.4-.18-1.13.02-1.54.29-.68.45-1.26 1.07-1.82 1.68-.48.51-.87 1.1-1.78 2.22.74.49 1.51.93 2.2 1.48s1.31 1.19 1.96 1.79c.59-.17 1.14-.32 1.69-.47.03.08.05.16.08.24l-4.25 3.93c.79-1.83-.97-2.71-2.14-3.88-1.22-1.21-2.47-2.39-3.7-3.58-1.07-1.03-2.01-2.4-4-1.73 1.54-1.36 3.08-2.72 4.47-3.94-1.06 2.59 1.65 3.11 2.75 4.57 1.55-1.4 2.96-2.69 4.32-3.92-1.76-2.95-2.92-3.66-5.18-3.41m-29.39 91.86c-.25.62-.44 1.08-.62 1.54-.16-.01-.33-.01-.49-.02l-.48-6.01c.19-.04.37-.07.56-.11.25.46.51.93.82 1.49 1.52-.09 3.03-.19 4.81-.3-.15-2.07-.28-3.91-.41-5.72-3.23-.89-4.88-.42-5.88 1.52l-.51-6.12c.16-.09.32-.19.48-.28.37 1.88 1.7 1.61 2.88 1.55 2.47-.12 4.96-.16 7.41-.5 1.05-.14 2-.94 3.12-1.5.16 1.71.35 3.79.54 5.86-.19.03-.39.06-.58.1-.2-.43-.41-.86-.56-1.18H16.2c.23 2.18.44 4.07.66 6.18 1.93-.14 3.67-.27 5.39-.39.27-.6.47-1.06.68-1.51h.44c.14 1.97.29 3.94.43 5.91l-.3.15c-.37-.44-.73-.88-1.24-1.5-3.72.3-7.53.57-11.32.84m64.2 74.09c.28 0 .56-.07.78.01 2.57 1 5.16 1.97 7.68 3.07 2.33 1.02 4.32 2.61 4.22 5.36-.09 2.67-1.46 5.92-4.66 7.12-2.31.87-4.46.76-6.66-.11-1.95-.78-3.89-1.59-5.94-2.43 2.51-1.55 2.62-4.22 3.52-6.37.85-2.02 2.84-4.02 1.06-6.65m3.92 2.76c-1.1 2.66-2.19 5.27-3.26 7.88-.22.54-.58 1.1-.59 1.65-.01.54.2 1.4.57 1.57.99.46 2.11.82 3.19.88 3.33.2 5.21-3.01 5.7-6.52.36-2.73-1.94-4.95-5.61-5.46m137.43-103.32c1.22.16 2.11.42 2.98.37 3.3-.19 6.59-.47 9.89-.72.25-.61.43-1.07.64-1.59.23.12.5.19.5.27.21 3.7.59 7.4.52 11.1-.05 2.25-2.36 4.01-4.76 4.29-5.08.6-8.43-1.89-9.18-6.99-.33-2.26-.4-4.56-.59-6.73m13.19 2.65c-3.49.27-6.96.51-10.41.84-.41.04-.98.48-1.13.87-.53 1.36.68 4.56 1.92 5.41 1.77 1.21 6.1 1.23 7.82.07 1.57-1.05 2.8-3.76 1.8-7.19m-69.84-79.35c-2.01-.92-3.88-1.77-5.75-2.63.05-.15.09-.31.14-.46h1.79c1.44-3.22 2.93-6.42 4.26-9.69.24-.59-.23-1.47-.42-2.45.98.35 2.16.7 3.29 1.17 1.3.54 2.55 1.2 3.83 1.79 1.42.65 2.61 1.49 2.43 3.28-.17 1.66-1.13 2.65-2.79 2.97-.45.09-.88.3-1.66.59.5 2.67 1 5.34 1.49 7.99-1.79.18-3.35-.91-3.67-2.85-.36-2.18-.69-4.37-1.04-6.57 3.49-.23 4.53-.81 4.72-2.47.15-1.41-.93-2.57-3-3.05-1.45 3.29-2.97 6.59-4.32 9.96-.21.49.35 1.3.7 2.42m-54.01-7.09c-.84-.34-1.79-.53-2.51-1.04-2.97-2.13-5.87-4.37-8.8-6.56-.27-.2-.59-.35-1.34-.37.51 2.17 1.03 4.33 1.54 6.5.45 1.94.45 1.94 2.17 2.89-1.46.34-2.92.67-4.38 1.01l-.18-.39c.43-.35.86-.7 1.52-1.23-.84-3.61-1.71-7.37-2.55-10.99-.79-.29-1.37-.5-1.95-.71.03-.13.06-.27.08-.4 1.11-.27 2.2-.65 3.33-.76.54-.05 1.2.32 1.68.67 2.99 2.18 5.94 4.4 8.91 6.61l.42-.3c-.57-2.56-1.13-5.12-1.7-7.67-.68-.16-1.22-.29-1.75-.42l-.06-.5 4.26-1.08c.1.14.21.28.31.43-1.47.63-1.43 1.6-1.12 2.87.9 3.64 1.63 7.32 2.43 10.98-.1.15-.2.3-.31.46m-95.74 78.62.49-3.77c1.15.57 2.02 1.29 2.98 1.44 3.65.57 7.33.96 11.55 1.49-.83 1.02-1.28 1.91-2.01 2.42-2.75 1.92-5.59 3.72-8.39 5.58-.53.35-1.02.76-1.54 1.14.01.18.02.36.02.53 2.75.29 5.5.64 8.25.81.42.03.89-.74 1.77-1.51-.24 1.8-.43 3.24-.62 4.68-1.19-3.18-4.07-1.68-6.03-2.33-1.42-.47-3.03-.37-4.56-.53-1.23-.13-2.37-.1-2.83 1.51-.8-2.4-.11-4.27 1.71-5.43 2.88-1.83 5.71-3.73 8.52-5.88-2.62-.74-5.21-1.33-7.89-1.06-.35.03-.64.7-.96 1.08-.14-.07-.3-.12-.46-.17m133.79-91.69c3.38.94 6.79 1.89 10.45 2.91-.53 1.13-.9 1.93-1.27 2.73l-.41-.06c-.06-.52-.13-1.03-.22-1.81-1.33-.4-2.76-.82-4.46-1.33-.44 1.69-.82 3.17-1.24 4.77 1.71.35 3.1 1.72 4.33-.42.16.11.31.22.47.33-.38 1.34-.77 2.68-1.15 4.03-.16.06-.32.12-.49.17.1-2.62-1.7-2.55-3.54-2.8-.42 1.34-.88 2.65-1.23 3.99-.09.33.01.99.22 1.09.89.4 1.87.62 2.79.96 1.2.44 1.9-.1 2.43-1.11.06-.11.29-.13.91-.37-.44 1.31-.76 2.29-1.16 3.46-3.17-.93-6.24-1.83-9.32-2.73 2.08-3.53 2.75-7.46 3.66-11.3.14-.65-.43-1.47-.77-2.51m87.29 117.11c-.4 3.48-.8 6.97-1.23 10.68-1.1-.26-2.03-.47-2.95-.69 3.15-.84 1.58-3.54 2.38-5.23-4.31-1.67-5.39-1.11-5.16 2.56.43.3.88.61 1.32.92-.04.16-.09.32-.13.48-.68-.1-1.35-.22-2.03-.29-.69-.07-1.39-.1-2.56-.18.57-.47.84-.67 1.07-.9.41-.41 1.04-.78 1.14-1.26.49-2.39.36-2.51-2.17-2.73-.97-.08-1.94-.14-3.09-.21.16 2.29-1.68 4.65 1.74 5.94-.15.12-.3.24-.44.37l-3.16-.41c.4-3.4.78-6.67 1.14-9.74 1.21.36 2.11.74 3.04.89 2.15.34 4.32.59 6.49.83 1.59.17 3.34.92 4.6-1.03M54.26 33.67c.92 1.28 1.81 2.51 2.79 3.87 1.02-.73 1.91-1.37 2.81-2.01l-.25-1.71c.14-.07.27-.15.41-.22l2.43 3.54-.34.37c-.48-.31-.97-.62-1.65-1.06l-2.77 1.98c1.07 1.55 2.02 2.92 2.92 4.21 3.2-1.18 3.77-1.92 3.84-5.21.81 1.12 1.39 1.91 2.2 3.03-2.79 1.93-5.47 3.78-8.05 5.57-1.74-4.11-4.62-7.34-7.01-10.8-.72.08-1.27.14-1.82.21-.04-.1-.09-.2-.13-.29 2.86-2.03 5.72-4.06 8.8-6.25.53.98 1 1.85 1.61 2.97-2.46-.88-3.69-.47-5.79 1.8M26.25 158.13c1.01-.37 2.01-.74 3.27-1.2 1.34 3.05 2.64 5.98 3.99 9.07-3.03-.22-5.13 1.73-7.64 2.53-.78.25-1.49.72-2.25 1.03-1.24.52-2.65.86-2.18 2.88l-.47-.06c-1.44-3.2-2.88-6.39-4.44-9.85 1.18-.29 2.08-.51 3.27-.81-1.54 2.11-1.34 3.36.77 5.83 1.3-.58 2.67-1.18 4.27-1.89-1.04-1.36-.64-3.58-3.25-3.2-.01-.16-.02-.32-.04-.48 1.22-.56 2.44-1.12 3.67-1.68.12.08.24.17.36.25-1.42 1.6-.96 2.98.47 4.51 1.38-.6 2.86-1.24 4.75-2.05-.75-1.58-1.44-3.05-2.09-4.43-.98.05-1.66.09-2.34.12-.05-.17-.08-.37-.12-.57M210.97 57.19c1.9 2.91 3.81 5.82 5.86 8.95-1.03.53-1.9.98-2.76 1.42-.09-.12-.17-.25-.26-.37.3-.46.61-.91 1.14-1.71-.82-1.06-1.56-2.97-2.65-3.2-1.11-.23-2.56 1.19-3.97 1.95 1.03 1.65 1.22 3.61 3.71 2.87l.03.48-3.42 2.19c-.1-.1-.21-.2-.31-.3.26-.47.51-.93.77-1.4-1.37-3.5-2.18-3.52-6.2.02 1.1 1.89 1.58 4.47 4.99 3.62-1.99 2.29-2.78 2.28-4.23.11-1.27-1.91-2.48-3.87-3.71-5.81-.09-.14-.09-.33-.08-.29 1.14-.56 2.25-1.01 3.26-1.62 1.96-1.2 3.86-2.5 5.8-3.73 1.1-.7 2.24-1.34 1.45-3.09.18-.03.38-.06.58-.09M74.87 19.88c.08 1.27-.07 2.26.25 3.06.83 2.07 1.85 4.08 2.84 6.09.96 1.93 2.09 2.3 4.23 1.46 2.21-.86 3.14-2.32 2.43-4.2-.89-2.36-1.92-4.69-3.06-6.94-.3-.6-1.23-.88-2.11-1.47 1.24-.54 2.54-1.12 3.85-1.69.08.1.15.2.23.31-.33.42-.65.84-1.08 1.39.92 2.16 1.91 4.35 2.81 6.58 1.87 4.6-.22 8-5.21 8.53-2.96.31-4-.33-5.19-3.11-.86-2.01-1.76-3.99-2.66-5.98-.17-.37-.4-.72-.63-1.12-.51-.07-1.03-.14-1.55-.2-.05-.14-.11-.28-.16-.42 1.76-.8 3.52-1.6 5.01-2.29m70.86 211.34c.93-2.17 1.88-4.26 2.69-6.41.19-.51.17-1.41-.16-1.75a49 49 0 0 0-4.29-3.94c-.45-.37-1.18-.37-1.79-.55 1.77-2.3 3.28-2.47 5.3-.59l2.66 2.46c.55-1.64 1-2.95 1.43-4.27.4-1.23 1.16-1.84 2.37-1.66-.8 1.94-1.62 3.83-2.33 5.77-.18.49-.24 1.34.05 1.63 1.89 1.95 3.89 3.8 5.89 5.72-.86 1.14-2.98 1.44-4.26.26-.95-.88-1.9-1.77-2.86-2.64-.12-.11-.32-.11-.67-.22-.55 1.48-1.23 2.92-1.59 4.43-.34 1.53-1.31 1.69-2.44 1.76M19.94 73.84c.96.57 1.83 1.09 3.06 1.82-.71.17-1.03.36-1.21.27-1.17-.55-2.11.04-2.57.89-.49.91-.81 2.12-.64 3.1.25 1.43 2.25 1.69 3.45.52.71-.69 1.27-1.55 1.91-2.32 1.43-1.73 2.7-2.18 4.27-1.54 2.16.88 3.36 2.7 3.15 4.8-.25 2.5-1.3 4.59-3.32 6.38-.98-.55-1.97-1.09-3.34-1.85.67-.21.98-.42 1.14-.34 1.35.68 2.47.08 3.03-.96.56-1.05.94-2.44.77-3.59-.24-1.59-2.3-1.94-3.47-.74-.82.84-1.57 1.76-2.37 2.62-1.15 1.23-2.51 1.71-4.14 1.01-1.79-.76-2.77-2.16-2.65-3.98.16-2.31 1.11-4.28 2.93-6.09M170 37.21c.79-.94 1.49-1.76 2.17-2.57.14 1.33-.01 2.64.48 3.62.41.82 1.51 1.63 2.42 1.78.85.14 2.03-.36 2.73-.97.92-.8.36-1.85-.31-2.67-.74-.92-1.56-1.78-2.26-2.73-1.02-1.37-1.12-2.8-.06-4.23 1.04-1.41 2.4-2.1 4.14-1.77 2.37.46 4.17 1.78 5.56 3.9-.65.8-1.27 1.57-2.11 2.61-.13-.61-.27-.85-.21-1.01.75-1.92-.57-4.07-2.61-4-.7.02-1.62.54-1.99 1.11-.31.49-.14 1.47.13 2.1.28.68.9 1.23 1.41 1.8 2.11 2.33 2.4 3.59 1.23 5.45-1.28 2.03-3.28 2.75-5.83 1.79-2.04-.76-3.82-2.02-4.89-4.21M30.78 56.4c.81.77 1.56 1.46 2.3 2.16-.01.18-.01.37-.02.55-2.24-1.19-3.73-.34-4.89 1.37-2.06 3.04-.76 6.65 2.99 8.35 3.59 1.63 7.43-.33 8.52-4.35.14-.5.25-1.01.39-1.58 1.08 1.06 1.02 1.89-.21 4.42-1.58 3.25-5.12 5.48-8.04 5.07-2.96-.42-5.86-2.98-6.39-5.65-.7-3.52 1.67-8.19 5.35-10.34m91.69-46.29c1.99.15 4.06.31 6.13.47.01.15.03.3.04.45-.48.22-.96.45-1.61.76.99 2.93 1.95 5.81 2.92 8.68l.52.09c1.2-2.51 2.47-4.99 3.55-7.55.18-.42-.43-1.17-.7-1.81h3.74c-.84 1.28-1.72 2.41-2.36 3.66-1.45 2.83-2.75 5.73-4.21 8.56-.28.54-.94 1.09-1.5 1.18-.33.05-1-.71-1.18-1.23-1.17-3.27-2.2-6.59-3.39-9.84-.41-1.13-1.19-2.12-1.95-3.42m-16.53 210.02c-.5 1.16-.92 2.12-1.35 3.12-.24-.16-.5-.24-.51-.35-.29-2.46-1.01-3.34-3.18-3.79-2.31-.48-4.44.38-5.48 2.3-1.32 2.44-1.67 5-.07 7.39 1.48 2.22 3.83 2.79 6.4 2.55.29-.03.58-.01.87-.01.05 0 .1.05.54.31-.71.39-1.21.85-1.76.93-2.62.37-5.04-.34-7.19-1.78-2.82-1.88-3.71-5.01-2.59-8.47.95-2.95 3.41-4.61 6.75-4.65 2.74-.04 5.18.76 7.57 2.45m-94.39-76.04c1.12-.16 2.15-.3 3.19-.44.07.15.15.3.22.45-1.67.96-2.54 2.3-2.07 4.18 1.09 4.42 6.1 5.9 9.6 2.85 2.61-2.27 3.04-5.05 1.26-8.08-.35-.6-.71-1.19-1.3-2.15.75.22 1.2.21 1.43.43 2.49 2.35 3.7 7.9 1.44 11.09-3.04 4.3-9.23 4.29-12.07-.14-1.5-2.36-2.35-5.01-1.7-8.19m196.85 18.23c.86-1.95 1.73-3.91 2.59-5.86.17.05.33.09.5.14.04.54.07 1.08.12 1.86 3.14 1.37 6.35 2.84 9.62 4.15.58.23 1.44-.2 2.57-.39-1.35 3.09-2.71 6.21-4.17 9.58-1-.64-1.77-1.14-2.54-1.63.06-.12.12-.25.18-.37h1.79c.53-1.16 1.1-2.4 1.76-3.86-1.59-.73-2.95-1.36-4.4-2.03-.78 1.46-2.19 2.63-.23 4.22-.13.12-.27.23-.4.35-1.25-.55-2.51-1.1-3.76-1.65.01-.15.03-.31.04-.46.57-.06 1.14-.13 1.91-.21.35-.8.74-1.69 1.22-2.8-1.74-.74-3.34-1.42-5.16-2.2-.41.51-.77.96-1.13 1.42-.18-.1-.34-.18-.51-.26m-67.94 68.26c-.52 2.28-4.91 3.66-8.52 2.7-4.32-1.15-5.95-4.86-5.12-8.99.89-4.41 6.53-6.65 12.25-5.06v3.32c-.29-.09-.57-.13-.58-.2-.3-1.98-1.86-2.36-3.37-2.36-1.76.01-3.49.39-4.55 2.17-1.41 2.37-1.07 5.9.89 8.09 1.75 1.95 4.96 2.34 7.69.96.4-.21.79-.38 1.31-.63m-17.69-9.73c-.24 1.13-.46 2.18-.69 3.22-.28-.06-.48-.06-.49-.11-.75-2.49-1.12-2.82-3.41-2.97-2.75-.18-4.38.61-5.25 2.69-1.11 2.67-.91 5.33 1.01 7.49 1.87 2.09 4.41 2.23 7.01 1.43.38-.12.76-.21 1.18-.32-.52 1.96-4.83 2.71-8.46 1.45-4.25-1.47-5.26-5.98-3.96-9.68 1.54-4.32 7.94-5.66 13.06-3.2m-91.64-34.42c.83-.26 1.41-.44 1.98-.61.08.13.17.26.25.39-.75.64-1.49 1.29-2.49 2.15-2.37-3.62-4.66-7.11-7.13-10.88 1.05-.59 1.96-1.09 2.86-1.6l.21.39c-.34.61-1.06 1.31-.93 1.81.23.92.94 1.71 1.61 2.81 2.43-1.56 4.75-3.03 7.05-4.51.35-.22.67-.48 1.02-.7 1.05-.65 2.19-1.24 1.11-2.95.23-.05.46-.09.69-.14l3.34 5.17c-.14.11-.27.22-.41.34-.41-.27-.83-.53-1.42-.91-3.16 2.03-6.36 4.08-9.71 6.23.72 1.11 1.32 2.03 1.97 3.01M201.51 47.7c-.82-.98-1.53-1.82-2.26-2.69-.72.3-1.32.55-1.91.8-.11-.15-.23-.3-.34-.45.8-.65 1.61-1.29 2.53-2.03 2.63 3.03 5.36 6.18 8.23 9.49-.89.68-1.73 1.33-2.58 1.98-.12-.1-.24-.2-.36-.29.28-.59.55-1.18.93-1.99-.64-.75-1.35-1.57-2.19-2.56-2.82 2.44-5.53 4.69-8.11 7.1-.43.4-.28 1.42-.44 2.49-1.4-1.59-2.74-3.11-4.08-4.62.06-.18.13-.35.19-.53 1.72 1.38 2.56.11 3.59-.81 2.2-1.97 4.45-3.86 6.8-5.89m-1.3 128.81c1.1-1.65 2.2-3.31 3.31-4.96l.39.18v1.78c3.09 2 6.24 4.03 9.34 6.02 2.09-2.16 2.12-2.35.69-4.96 1.22.57 2.1.98 3.31 1.54l-7.02 10.91c-.93-.7-1.77-1.32-2.6-1.94.08-.16.15-.32.23-.48.58.2 1.16.4 1.87.64.61-.87 1.25-1.77 2.06-2.91-1.95-1.33-3.82-2.62-5.7-3.89-.49-.33-1.02-.6-1.5-.93-1.27-.86-2.47-2.05-4.18-.55-.08-.15-.14-.3-.2-.45m23.69-95.2c1.44 4.16 2.8 8.07 4.24 12.22-1.13.31-2.13.58-3.13.85-.15-.09-.29-.19-.44-.28 2.59-1.39 1.54-2.95.54-4.74-3.24 1.14-6.48 2.2-9.63 3.46-.68.27-1.07 1.29-1.74 2.14-.66-1.93-1.35-3.93-2.03-5.93.15-.07.3-.15.45-.22.35.4.71.8 1.24 1.4 3.47-1.19 7-2.4 10.49-3.59.18-2.6-.08-2.92-3.26-3.81 1.21-.56 2.11-.97 3.27-1.5m-66.98 131.76c1.88-.86 3.76-1.71 5.64-2.57.12.11.25.22.37.32-1.63 1.28-.92 2.54-.29 3.9 1.22 2.61 2.34 5.26 3.6 8.13 2.04-1.09 5.13-.76 4.38-4.75.19.07.37.13.56.2.38.97.75 1.94 1.25 3.22-3.03 1.35-5.99 2.68-9 4.02-.19-3.62-2.38-6.39-3.46-9.56-.06-.17-.2-.31-.24-.47-.37-1.38-1.05-2.38-2.88-1.95.03-.15.05-.32.07-.49m71.7-66.44c-.56 1.92-1.12 3.84-1.67 5.77-.16-.02-.32-.05-.48-.07-.08-.49-.16-.98-.28-1.74-3.53-1.02-7.17-2.08-10.76-3.12-1.38 2.13-1.38 2.18-.01 6.44-.1.04-.22.14-.3.11-3.53-1.28-3.01-.62-2.12-4.1.56-2.19 1.3-4.33 1.84-6.13 1.57.6 2.96 1.21 4.4 1.67 1.79.57 3.59 1.09 5.42 1.51 1.24.28 2.67 1.3 3.59-.9.13.19.25.37.37.56M195.15 39.94c-2.1-.99-2.9.6-3.89 1.72-1.88 2.12-3.72 4.27-5.59 6.44.27.63.51 1.18.75 1.72l-.36.3-4.63-4.09c.03-.17.07-.35.1-.52 1.86 1.17 2.59-.2 3.49-1.23 1.36-1.56 2.78-3.07 4.09-4.67.92-1.12 2.51-2.08.85-4.08.21-.03.42-.05.63-.08 1.54 1.32 3.09 2.64 4.63 3.95-.03.19-.05.37-.07.54M12.34 94.25c.4-2.05.8-4.1 1.83-5.94.15.02.3.05.45.07.04.51.08 1.03.13 1.75 3.44.95 6.87 1.97 10.34 2.8.58.14 1.36-.52 2.41-.95-.62 2.08-1.2 4.01-1.78 5.95l-.41-.03c-.11-.53-.21-1.05-.36-1.79-3.41-.92-6.85-1.91-10.34-2.72-.61-.15-1.4.5-2.27.86M169.71 206.7c1.72-1.09 3.39-2.16 5.06-3.23.14.06.29.12.43.18-1.47 1.56-.39 2.64.39 3.81 1.67 2.49 3.3 5 4.94 7.48.72-.11 1.25-.19 1.89-.29-.82 1.57-4.23 3.6-5.52 3.34l1.12-1.22c-1.94-3.01-3.8-6.01-5.81-8.9-.4-.57-1.42-.69-2.5-1.17M116.08 23.11c.75.25 1.22.41 1.7.57v.51c-2.01.15-4.02.29-6.03.44-.09-.15-.17-.31-.26-.46 1.81-.46 1.72-1.66 1.58-3.02-.33-3.1-.53-6.21-.77-9.24-.64-.29-1.13-.52-1.62-.74.02-.14.03-.27.05-.41 2.02-.19 4.04-.38 6.06-.58.06.15.11.3.17.45-.44.27-.88.54-1.52.94.21 3.75.43 7.62.64 11.54m90.97 53.87c1.21 1.66 2.43.95 3.73.35 2.72-1.26 5.47-2.43 8.21-3.64.06-.69.12-1.27.17-1.84.14-.05.28-.1.43-.16.84 1.87 1.68 3.73 2.51 5.6-.15.09-.29.18-.44.27-.42-.35-.84-.69-1.38-1.15-3.45 1.53-6.93 3.07-10.43 4.63-.03.71-.06 1.32-.09 1.92-.14.04-.27.08-.41.13-.86-1.89-1.73-3.78-2.59-5.67.09-.14.19-.29.29-.44M186 212.11c.23-.38.46-.77.68-1.14-.03-.14-.01-.28-.07-.37-2.11-2.76-4.16-5.57-6.38-8.24-.41-.49-1.46-.46-2.61-.77l4.95-3.86c.13.1.25.2.38.3-.25.52-.51 1.05-.85 1.75 2.32 2.98 4.7 6.03 7.08 9.09.67-.23 1.13-.38 1.58-.54l.34.49c-1.55 1.25-3.11 2.49-4.66 3.74-.15-.15-.3-.3-.44-.45M43.08 198.57c-1.98-.02-3.44-1.51-3.42-3.48.02-2.1 1.45-3.58 3.51-3.63 1.93-.04 3.61 1.65 3.56 3.6-.06 2.04-1.61 3.53-3.65 3.51m150.08-6.94c0-2 1.44-3.43 3.45-3.44 2.1-.01 3.54 1.46 3.53 3.58-.01 1.92-1.61 3.54-3.48 3.54-1.94 0-3.51-1.65-3.5-3.68M124.72 47.01c-4.84-2.62-5.63-6.73-5.09-11.84-4.45 2.92-6.04 6.73-5.51 11.64-.9-.68-1.25-3.06-.74-4.7 1.24-3.97 4.19-7.91 7.86-8.06-1.01 2.31-1.52 4.75-.47 7 .94 2.02 2.47 3.77 3.95 5.96m50.76 7.41c-1.55.79-3.28 1.31-4.49 2.39-1.17 1.05-1.81 2.68-2.69 4.09-.29-2.56 1.18-4.55 4.89-6.69-2.67-2.26-7.45-1.59-11.57 1.64-.21-1 .27-1.54 2.39-2.69 3.54-1.91 9.05-1.23 11.47 1.26M90.1 41.63c-.21 1.47-.66 2.95-.55 4.4.11 1.37.81 2.69 1.3 4.18-2.93-1.56-2.83-7.83.1-10.58.18.31.39.57.49.87.9 2.57 2.75 3.97 5.37 4.58 2.14.49 3.92 2.4 4.09 4.36-.3-.26-.55-.38-.67-.58-1-1.64-2.43-2.86-4.27-3.2-2.27-.41-3.61-1.82-4.8-3.55-.13-.19-.28-.38-.42-.57zM76.56 56.79c-2.33 1.98-5.22 1.19-9.33-2.23-.95 1.53-.66 3.13-.05 4.52.6 1.38 1.7 2.55 2.55 3.77-3.43-.31-4.97-6.21-2.46-10.33 1.95 3.64 5 5.03 9.29 4.27m76.13-16.16c-.87 1.3-1.9 2.41-2.41 3.72-.5 1.28-.49 2.77-.72 4.28-1.18-2.19-.8-4.05 1.59-7.66-3.14-.49-5.45.71-7.42 3.19-.03-3.22 5.48-5.15 8.96-3.53"/><path d="M67.17 140.77c-2.05-2.54-6.79-2.92-9.01-.61-.54.56-.62 1.55-.94 2.43-.74-.64-1.53-1.31-2.35-2.01-1.31 1.21-1.75 2.39-.69 3.95.39.57.42 1.39.68 2.35h-7.54c.31-1.07.37-2.09.87-2.81.87-1.27.84-2.25-.01-3.54-.47-.71-.64-1.94-.38-2.76.39-1.24.25-2.1-.53-3.09-.52-.65-.72-1.55-1.23-2.7 2.79-.15 5.23-.29 8.02-.44-.21 1.08-.26 1.76-.48 2.38-.7 1.92-.53 3.19.55 3.51 1.84.56 4.07-.4 4.63-2 .84-2.41-.15-4.81-2.54-5.64-2-.69-4.08-1.12-6.14-1.63-1.59-.39-3.05-.2-4.16 1.19-1.92-1.24-.05-2.25.17-3.43-1.19-.49-2.35-.97-3.77-1.55-.26.12-.77.37-1.26.61-1.3-.99-1.51-2.37-.45-3.65 1.12-1.36 2.34-2.65 3.58-3.9 1.09-1.1 2.21-.99 2.81.43.64 1.5 1.47 1.38 2.65.83 3.53-1.65 7.09-3.25 10.63-4.87.32-.15.66-.44.97-.41.75.07 1.88.07 2.14.51.54.95-.07 1.77-1.12 2.17-2.08.81-4.16 1.64-6.24 2.48-2.33.94-4.66 1.89-7.06 2.86.31.83.53 1.42.78 2.07-.32.4-.64.8-1.14 1.43.67.36 1.21.87 1.81.95 3.1.44 6.2.82 9.32 1.11.63.06 1.37-.3 1.96-.64 1.72-.98 3.38-2.08 5.09-3.07.82-.47 1.84-.75.94-2.16-.4.15-.83.27-1.23.46-1.67.78-2.98.54-3.36-.8-.5-1.77 1.06-1.87 2.19-2.51.07.39.05.62.15.8.26.48.56.93.85 1.4.46-.35 1.33-.72 1.31-1.05-.05-1.3.62-1.91 1.62-2.46 1.14-.62 1.08-1.73.96-2.81-.06-.5-.19-.98-.27-1.4 1.13.41 2.28 1.24 3.2 1.03.89-.21 1.54-1.47 2.55-2.55.45.65.95 1.13 1.14 1.71.81 2.4.82 2.44 3.35 2.42.33 0 .66.03 1.26.41-.67.63-1.26 1.43-2.04 1.87-1.77.99-2.32 1.73-1.86 3.68.4 1.7-.07 3.04-1.2 4.21-1.31 1.36-2.71 2.63-4.04 3.97-1.04 1.05-1.12 2.12-.38 3.52 1.19 2.23 2.06 4.63 3.13 6.92.98 2.1 2.57 2.97 4.85 2.8 2.57-.2 3.25-1.52 1.96-3.84-.64-1.14-1.48-2.27-.39-3.55.37-.44.92-.72 1.77-1.36-.32 1.99-.8 3.56.83 4.79 1.23-1.89.64-3.76-.12-5.47-.81-1.82-2.07-3.44-2.89-5.26-.92-2.02-1.37-4.15-.04-6.27 1.53-2.44 5.29-2.99 7.38-.97.58.57 1.07 1.27 1.46 1.98.78 1.44 1.72 2.28 3.41 1.21.85 1.28.31 2.3-.53 3.02-1.25 1.06-2.77 1.3-4.27.49-1.33-.71-1.94-1.88-1.63-3.39.28-1.34.1-2.28-1.43-2.72-1.54-.45-2.2.57-2.78 1.55-1.15 1.95-.89 3.55 1.08 4.99-.18-.91-.37-1.82-.57-2.86 1.57.14 2.46 1.01 2.71 2.48.14.81-.01 1.65.03 2.48.08 1.85.13 3.71.3 5.55.21 2.27.19 4.46-.93 6.54-1.49 2.78-3.99 3.91-7.09 3.24-.45-.1-1.23.26-1.53.66-1.24 1.61-2.34 3.33-3.51 4.99-.84 1.19-.66 2.25.61 3.42 1.96 1.81 1.89 1.84.65 4.11-.35.64-.13 1.63-.08 2.45.04.67.22 1.34.38 2.25-2.14-.78-4.52.48-5.61-2.32.33-.2.76-.67 1.22-.7.97-.06 1.64-.14 1.94-1.31.35-1.35.81-2.64-.17-3.87-.95-1.18-1.86-.81-2.73 1.16-1.02-.88-1.07-1.8-.22-2.75.95-1.05 1.12-2.18.94-3.59-.13-1.03.26-2.23.71-3.22 1.27-2.83.96-3.82-1.85-5.1-.59-.27-1.17-.53-1.76-.8z"/><path d="M67.14 140.75c.78.62 1.54 1.27 2.35 1.87 1.53 1.13 1.74 2.37.38 3.68-1.53 1.47-3.2 2.8-4.84 4.16-1.73 1.42-2.02 2.46-.97 4.44.71 1.35.88 2.3-.8 3.14-.74.37-1.1 1.51-1.58 2.21-2.04.65-3.15-1.23-4.84-2.07.31-1.03.71-2.06 2.23-1.45 1.01.41 2.18.75 2.56-.44.22-.69-.52-1.73-.92-2.57-.12-.26-.58-.35-.94-.55l-1.39 1.33c-.75-1.4-.29-2.85 1.3-3.33 1.81-.54 2.52-1.81 2.99-3.39.83-2.76 2.38-5.07 4.49-7.02z"/><path d="M67.86 151.19v5.75c-1.88.46-2.22.25-2.25-1.34-.02-1 .09-2 .06-2.99-.06-1.48.63-1.88 2.19-1.42m-8.75-3.76v-5.76c1.94-.47 2.15-.32 2.14 1.36-.01 1.44 0 2.88 0 4.4zm17.83-16.83c.75.03 1.3.06 1.9.08v5.92h-1.9zm11.8-12.69h-2.17c0-1.78-.06-3.42.04-5.05.02-.35.66-.98.92-.93.44.08 1.13.56 1.15.92.13 1.62.06 3.27.06 5.06m-28.9 7.01H58v-5.88c.55-.04 1.1-.09 1.84-.15z"/></svg>